<svg width="60" height="60" viewBox="0 0 60 60" fill="none" xmlns="http://www.w3.org/2000/svg">
<path d="M56.9531 14.6667H41.6859L40.1339 7.03125C40.096 6.84565 39.9951 6.67888 39.8482 6.55926C39.7013 6.43963 39.5176 6.37453 39.3281 6.375H20.6719C20.4824 6.37453 20.2987 6.43963 20.1518 6.55926C20.0049 6.67888 19.904 6.84565 19.8661 7.03125L18.3141 14.6667H14.1797V11.4122C14.1792 11.195 14.0925 10.9868 13.9388 10.8334C13.785 10.6799 13.5766 10.5938 13.3594 10.5938H6.97734C6.75978 10.5938 6.55113 10.6802 6.39729 10.834C6.24346 10.9879 6.15703 11.1965 6.15703 11.4141V14.6681H3.04688C2.82931 14.6681 2.62066 14.7546 2.46683 14.9084C2.31299 15.0622 2.22656 15.2709 2.22656 15.4884V52.808C2.22743 53.025 2.31424 53.2328 2.46798 53.3859C2.62173 53.539 2.82988 53.625 3.04688 53.625H56.9531C57.1707 53.625 57.3793 53.5386 57.5332 53.3847C57.687 53.2309 57.7734 53.0223 57.7734 52.8047V15.487C57.7734 15.2695 57.687 15.0608 57.5332 14.907C57.3793 14.7531 57.1707 14.6667 56.9531 14.6667ZM3.86719 25.5094H20.1736C18.0686 27.8951 16.9073 30.9674 16.9078 34.149C16.9083 37.3306 18.0706 40.4025 20.1764 42.7875H3.86719V25.5094ZM18.5484 34.1466C18.5484 31.8817 19.2201 29.6676 20.4784 27.7844C21.7367 25.9012 23.5252 24.4334 25.6177 23.5667C27.7102 22.7 30.0127 22.4732 32.2341 22.915C34.4555 23.3569 36.4959 24.4476 38.0975 26.0491C39.699 27.6506 40.7897 29.6911 41.2315 31.9125C41.6734 34.1339 41.4466 36.4364 40.5799 38.5289C39.7131 40.6214 38.2453 42.4099 36.3621 43.6682C34.4789 44.9265 32.2649 45.5981 30 45.5981C26.9639 45.5948 24.0531 44.3872 21.9062 42.2403C19.7594 40.0935 18.5518 37.1827 18.5484 34.1466ZM43.0917 34.1466C43.0937 30.9655 41.9323 27.8935 39.8264 25.5094H56.1328V42.7875H39.8231C41.9313 40.4029 43.0936 37.3294 43.0917 34.1466ZM21.3398 8.01563H38.6602L40.012 14.6681H19.988L21.3398 8.01563ZM7.79719 12.2344H12.5391V14.6681H7.79766L7.79719 12.2344ZM18.9844 16.3073H56.1328V23.8688H38.0948C35.7902 22.0461 32.938 21.0546 29.9998 21.0546C27.0615 21.0546 24.2093 22.0461 21.9047 23.8688H3.86719V16.3073H18.9844ZM3.86719 51.9844V44.4281H21.9094C24.2133 46.2485 27.0637 47.2388 30 47.2388C32.9363 47.2388 35.7868 46.2485 38.0906 44.4281H56.1328V51.9844H3.86719Z" fill="#111111"/>
<path d="M39.6484 19.1198H50.9378C51.1554 19.1198 51.364 19.0334 51.5179 18.8796C51.6717 18.7257 51.7581 18.5171 51.7581 18.2995C51.7581 18.082 51.6717 17.8733 51.5179 17.7195C51.364 17.5656 51.1554 17.4792 50.9378 17.4792H39.6484C39.4309 17.4792 39.2222 17.5656 39.0684 17.7195C38.9146 17.8733 38.8281 18.082 38.8281 18.2995C38.8281 18.5171 38.9146 18.7257 39.0684 18.8796C39.2222 19.0334 39.4309 19.1198 39.6484 19.1198Z" fill="#111111"/>
<path d="M33.1911 10.5197H26.8086C26.591 10.5197 26.3824 10.6061 26.2285 10.7599C26.0747 10.9138 25.9883 11.1224 25.9883 11.34C25.9883 11.5576 26.0747 11.7662 26.2285 11.92C26.3824 12.0739 26.591 12.1603 26.8086 12.1603H33.1911C33.4087 12.1603 33.6173 12.0739 33.7711 11.92C33.925 11.7662 34.0114 11.5576 34.0114 11.34C34.0114 11.1224 33.925 10.9138 33.7711 10.7599C33.6173 10.6061 33.4087 10.5197 33.1911 10.5197Z" fill="#111111"/>
<path d="M40.2801 34.1466C40.2801 32.1134 39.6772 30.126 38.5476 28.4355C37.4181 26.745 35.8126 25.4274 33.9343 24.6494C32.0559 23.8713 29.989 23.6677 27.9949 24.0644C26.0009 24.461 24.1692 25.4401 22.7316 26.8777C21.2939 28.3154 20.3149 30.147 19.9182 32.1411C19.5216 34.1352 19.7252 36.2021 20.5032 38.0804C21.2812 39.9588 22.5988 41.5643 24.2893 42.6938C25.9798 43.8234 27.9673 44.4262 30.0004 44.4262C32.7258 44.4231 35.3387 43.3391 37.2658 41.412C39.1929 39.4848 40.277 36.872 40.2801 34.1466ZM21.3618 34.1466C21.3618 32.4379 21.8685 30.7676 22.8178 29.3469C23.7671 27.9262 25.1163 26.8189 26.6949 26.1651C28.2736 25.5112 30.0106 25.3401 31.6864 25.6735C33.3623 26.0069 34.9016 26.8297 36.1098 28.038C37.3179 29.2462 38.1407 30.7856 38.474 32.4614C38.8073 34.1373 38.6361 35.8743 37.9822 37.4529C37.3282 39.0315 36.2209 40.3807 34.8001 41.3299C33.3794 42.2791 31.7091 42.7857 30.0004 42.7856C27.71 42.783 25.5141 41.872 23.8945 40.2524C22.275 38.6328 21.3644 36.437 21.3618 34.1466Z" fill="#111111"/>
</svg>
