<svg width="61" height="61" viewBox="0 0 61 61" fill="none" xmlns="http://www.w3.org/2000/svg">
<path d="M58.7363 25.0195C58.7334 22.7864 57.8984 20.6344 56.3942 18.9838C54.89 17.3332 52.8247 16.3024 50.6014 16.0926V3.09765C50.6014 2.94038 50.5568 2.78633 50.473 2.65327C50.3892 2.52021 50.2694 2.41358 50.1275 2.34566C49.9857 2.27775 49.8275 2.25133 49.6713 2.26946C49.5151 2.28758 49.3672 2.34951 49.2446 2.4481C49.1417 2.53102 38.8708 10.7227 31.221 10.7227H16.856C13.3495 10.7254 9.9662 12.0167 7.34959 14.3511C4.73298 16.6855 3.06551 19.9 2.66426 23.3836C2.26301 26.8671 3.15596 30.3766 5.17333 33.2447C7.19069 36.1128 10.1918 38.1395 13.6059 38.9394L19.0463 58.1301C19.0959 58.3047 19.2011 58.4584 19.3459 58.5678C19.4907 58.6772 19.6673 58.7364 19.8488 58.7363H26.5779C26.6916 58.7363 26.8042 58.7131 26.9086 58.668C27.013 58.6229 27.1071 58.5569 27.1851 58.4741C27.2631 58.3913 27.3233 58.2934 27.362 58.1865C27.4008 58.0796 27.4173 57.9658 27.4104 57.8523L26.6727 45.6309H29.1437C30.6901 45.6284 32.1778 45.0379 33.305 43.9791C34.4321 42.9203 35.1145 41.4725 35.2137 39.9293C42.018 41.8298 49.1588 47.5219 49.2446 47.591C49.3672 47.6895 49.5151 47.7515 49.6713 47.7696C49.8275 47.7877 49.9857 47.7613 50.1275 47.6934C50.2694 47.6255 50.3892 47.5188 50.473 47.3858C50.5568 47.2527 50.6014 47.0987 50.6014 46.9414V33.9465C52.8247 33.7367 54.89 32.7059 56.3942 31.0553C57.8984 29.4046 58.7334 27.2527 58.7363 25.0195ZM20.4793 57.0684L15.4278 39.2449C15.8981 39.2926 16.3752 39.3164 16.8574 39.3164H24.6206L25.692 57.0684H20.4793ZM29.1437 43.9629H26.5703L26.2896 39.3164H31.221C32.0077 39.3224 32.7923 39.3992 33.5652 39.5456C33.5627 40.7172 33.0959 41.84 32.267 42.668C31.4381 43.496 30.3153 43.9616 29.1437 43.9629ZM48.9339 45.2601C46.3081 43.3386 40.32 39.325 34.5779 38.0487L34.5603 38.0449C33.4648 37.7924 32.3452 37.6595 31.221 37.6484H16.856C15.1976 37.6484 13.5553 37.3218 12.0231 36.6871C10.4909 36.0525 9.09873 35.1222 7.92603 33.9495C6.75332 32.7768 5.82309 31.3846 5.18842 29.8524C4.55376 28.3202 4.22711 26.678 4.22711 25.0195C4.22711 23.3611 4.55376 21.7189 5.18842 20.1867C5.82309 18.6544 6.75332 17.2622 7.92603 16.0895C9.09873 14.9168 10.4909 13.9866 12.0231 13.3519C13.5553 12.7173 15.1976 12.3906 16.856 12.3906H31.221C37.8143 12.3906 45.7872 7.08076 48.9334 4.77897L48.9339 45.2601ZM50.6019 32.2695V17.7696C52.3817 17.9735 54.0244 18.825 55.2169 20.1619C56.4094 21.4989 57.0685 23.2278 57.0685 25.0193C57.0685 26.8108 56.4094 28.5397 55.2169 29.8766C54.0244 31.2136 52.3817 32.0656 50.6019 32.2695Z" fill="#111111"/>
<path d="M25.2579 13.582H16.8561C15.354 13.5781 13.866 13.8717 12.478 14.4458C11.0899 15.0199 9.82932 15.8632 8.76887 16.927C8.61208 17.0833 8.5238 17.2955 8.52344 17.5169C8.52308 17.7382 8.61068 17.9507 8.76696 18.1075C8.92325 18.2643 9.13541 18.3525 9.35679 18.3529C9.57817 18.3533 9.79062 18.2657 9.94741 18.1094C10.8533 17.2001 11.9304 16.4792 13.1165 15.9885C14.3025 15.4977 15.574 15.2467 16.8576 15.25H25.2579C25.4791 15.25 25.6912 15.1621 25.8476 15.0057C26.0041 14.8493 26.0919 14.6372 26.0919 14.416C26.0919 14.1948 26.0041 13.9827 25.8476 13.8263C25.6912 13.6699 25.4791 13.582 25.2579 13.582Z" fill="#111111"/>
</svg>
