<svg width="38" height="55" viewBox="0 0 38 55" fill="none" xmlns="http://www.w3.org/2000/svg">
<path d="M34.4569 0H3.54307C1.59095 0 0 1.61519 0 3.59705V51.403C0 53.3848 1.59095 55 3.54307 55H34.4569C36.409 55 38 53.3848 38 51.403V3.59705C38 1.61519 36.409 0 34.4569 0ZM1.6001 9.83502H36.3999V45.165H1.6001V9.83502ZM3.54307 1.62447H34.4569C35.5267 1.62447 36.3999 2.51097 36.3999 3.59705V8.21055H1.6001V3.59705C1.6001 2.51097 2.47329 1.62447 3.54307 1.62447ZM34.4569 53.3755H3.54307C2.47329 53.3755 1.6001 52.489 1.6001 51.403V46.7895H36.3999V51.403C36.3999 52.489 35.5267 53.3755 34.4569 53.3755Z" fill="#111111"/>
<path d="M19.0006 51.9367C20.0105 51.9367 20.8292 51.1055 20.8292 50.0802C20.8292 49.0548 20.0105 48.2236 19.0006 48.2236C17.9906 48.2236 17.1719 49.0548 17.1719 50.0802C17.1719 51.1055 17.9906 51.9367 19.0006 51.9367Z" fill="#111111"/>
<path d="M14.9543 5.73207H23.0417C23.4851 5.73207 23.8417 5.37004 23.8417 4.91983C23.8417 4.46962 23.4851 4.1076 23.0417 4.1076H14.9543C14.5109 4.1076 14.1543 4.46962 14.1543 4.91983C14.1543 5.37004 14.5109 5.73207 14.9543 5.73207Z" fill="#111111"/>
</svg>
