<svg width="66" height="66" viewBox="0 0 66 66" fill="none" xmlns="http://www.w3.org/2000/svg">
<path d="M42.1217 2.44922C38.0607 2.4486 34.0832 3.60201 30.6526 5.77505C27.2219 7.9481 24.4794 11.0513 22.7446 14.7231C21.0098 18.3949 20.3542 22.484 20.8541 26.5141C21.354 30.5442 22.9888 34.3493 25.5681 37.4859L18.865 44.0112L18.5556 43.7018C18.3875 43.5332 18.1595 43.4379 17.9214 43.4367C17.6832 43.4356 17.4543 43.5286 17.2846 43.6956L3.0394 57.6984C2.86976 57.8652 2.7728 58.0921 2.76961 58.3299C2.76643 58.5678 2.85727 58.7972 3.02238 58.9684L7.22472 63.3249C7.30754 63.4106 7.40648 63.4791 7.51585 63.5265C7.62522 63.5738 7.74287 63.5991 7.86204 63.6008H7.8739C8.11045 63.6012 8.33768 63.5086 8.50657 63.343L22.8306 49.2664C22.9156 49.183 22.9832 49.0836 23.0295 48.9739C23.0759 48.8642 23.1 48.7464 23.1006 48.6273C23.1012 48.5082 23.0782 48.3902 23.0329 48.2801C22.9876 48.1699 22.921 48.0699 22.8368 47.9856L22.4388 47.587L29.2197 40.987C31.9326 43.0326 35.093 44.4038 38.4402 44.9874C41.7873 45.571 45.2253 45.3504 48.4704 44.3436C51.7155 43.3368 54.6746 41.5728 57.1037 39.1972C59.5328 36.8215 61.3621 33.9023 62.4407 30.6804C63.5194 27.4585 63.8164 24.0263 63.3074 20.667C62.7983 17.3077 61.4977 14.1176 59.5129 11.3599C57.5281 8.60222 54.916 6.35606 51.8922 4.80674C48.8683 3.25741 45.5194 2.44935 42.1217 2.44922ZM7.88937 61.4176L4.93999 58.36L17.9126 45.6096L20.9166 48.6173L7.88937 61.4176ZM20.1401 45.2863L26.7736 38.8297C27.1129 39.1772 27.4611 39.511 27.8183 39.831L21.1631 46.3103L20.1401 45.2863ZM42.1217 43.5033C37.6056 43.4985 33.2284 41.9408 29.7245 39.0916C28.9212 38.4335 28.1696 37.7147 27.4764 36.9414C24.4861 33.5889 22.7365 29.3119 22.5198 24.8248C22.3031 20.3376 23.6324 15.912 26.2857 12.2869C28.939 8.66178 32.7557 6.05672 37.0984 4.90676C41.4411 3.75679 46.0469 4.13153 50.1466 5.9684C54.2463 7.80526 57.5917 10.9931 59.6241 14.9994C61.6565 19.0057 62.2529 23.5881 61.3136 27.9812C60.3744 32.3743 57.9564 36.3122 54.4635 39.1372C50.9705 41.9622 46.6141 43.5034 42.1217 43.5033Z" fill="#111111"/>
<path d="M42.121 5.54297C38.5842 5.54292 35.1228 6.56579 32.1541 8.4883C29.1855 10.4108 26.8361 13.1509 25.3894 16.3783C23.9426 19.6057 23.4601 23.1826 24.0001 26.678C24.5401 30.1733 26.0795 33.4379 28.4327 36.0783C29.0816 36.8025 29.7852 37.4757 30.5375 38.0918C33.8009 40.7732 37.8974 42.232 42.121 42.2168C46.9839 42.2168 51.6477 40.285 55.0863 36.8464C58.5249 33.4078 60.4567 28.7441 60.4567 23.8812C60.4567 19.0183 58.5249 14.3545 55.0863 10.9159C51.6477 7.47733 46.9839 5.54555 42.121 5.54555V5.54297ZM42.121 40.4095C38.3136 40.424 34.6205 39.1098 31.6781 36.6934C30.9989 36.1368 30.3635 35.5288 29.7775 34.8748C27.2605 32.0496 25.7889 28.4465 25.6083 24.6671C25.4277 20.8876 26.5491 17.1606 28.7853 14.1083C31.0214 11.056 34.2369 8.86317 37.8949 7.89591C41.553 6.92865 45.4321 7.24552 48.8847 8.79361C52.3372 10.3417 55.1542 13.0273 56.8654 16.4021C58.5765 19.7768 59.0782 23.6364 58.2866 27.3364C57.4951 31.0364 55.4582 34.353 52.5161 36.7322C49.574 39.1115 45.9048 40.4095 42.121 40.4095Z" fill="#111111"/>
</svg>
