<svg width="90" height="90" viewBox="0 0 90 90" fill="none" xmlns="http://www.w3.org/2000/svg">
<path d="M58.4808 28.9181C58.23 28.7162 57.91 28.6206 57.5896 28.6518C57.2691 28.6831 56.9736 28.8387 56.7666 29.0853C56.5596 29.3319 56.4574 29.6498 56.4821 29.9709C56.5068 30.2919 56.6564 30.5905 56.8987 30.8025C58.9758 32.5396 60.6464 34.7113 61.7927 37.1644C62.9389 39.6175 63.5329 42.2923 63.5327 45C63.5327 45.3264 63.6624 45.6393 63.8931 45.8701C64.1239 46.1008 64.4369 46.2305 64.7632 46.2305C65.0895 46.2305 65.4025 46.1008 65.6333 45.8701C65.864 45.6393 65.9937 45.3264 65.9937 45C65.9947 41.9329 65.3224 38.903 64.0243 36.1242C62.7261 33.3454 60.8337 30.8855 58.4808 28.9181Z" fill="black"/>
<path d="M44.9991 28.2256C41.6814 28.2256 38.4382 29.2094 35.6797 31.0526C32.9211 32.8958 30.7711 35.5156 29.5015 38.5807C28.2319 41.6459 27.8997 45.0186 28.5469 48.2726C29.1942 51.5265 30.7918 54.5154 33.1377 56.8614C35.4837 59.2073 38.4726 60.8049 41.7265 61.4522C44.9805 62.0994 48.3532 61.7672 51.4184 60.4976C54.4835 59.228 57.1033 57.078 58.9465 54.3194C60.7897 51.5609 61.7735 48.3177 61.7735 45C61.7685 40.5527 59.9996 36.289 56.8549 33.1443C53.7101 29.9995 49.4464 28.2306 44.9991 28.2256ZM44.9991 59.3143C42.1682 59.3143 39.4008 58.4748 37.047 56.902C34.6931 55.3293 32.8585 53.0939 31.7752 50.4785C30.6918 47.863 30.4083 44.9851 30.9605 42.2086C31.5128 39.432 32.8759 36.8816 34.8776 34.8798C36.8793 32.878 39.4297 31.5147 42.2062 30.9623C44.9827 30.41 47.8607 30.6933 50.4761 31.7766C53.0916 32.8598 55.3271 34.6943 56.9 37.0481C58.4729 39.4018 59.3124 42.1691 59.3126 45C59.3083 48.7949 57.7989 52.4331 55.1155 55.1165C52.4321 57.7999 48.7939 59.31 44.9991 59.3143Z" fill="black"/>
<path d="M86.1681 38.5889C86.123 38.2987 85.9756 38.0341 85.7525 37.8431C85.5294 37.652 85.2454 37.5469 84.9517 37.5469H73.2517C72.5829 35.0029 71.5705 32.5619 70.2423 30.2913L78.5132 22.0198C78.7209 21.8123 78.8476 21.5374 78.8703 21.2446C78.893 20.9519 78.8102 20.6607 78.6369 20.4237C76.1025 16.9529 73.0459 13.8956 69.5757 11.3604C69.3385 11.1877 69.0474 11.1052 68.7549 11.1279C68.4623 11.1506 68.1874 11.2769 67.9797 11.4842L59.7088 19.7578C57.4383 18.4294 54.9973 17.4167 52.4532 16.7477V5.04845C52.4532 4.75473 52.3482 4.4707 52.1571 4.24763C51.966 4.02457 51.7014 3.87717 51.4112 3.83204C47.1621 3.17838 42.8381 3.17838 38.589 3.83204C38.2988 3.87717 38.0342 4.02457 37.8432 4.24763C37.6521 4.4707 37.547 4.75473 37.547 5.04845V16.7485C35.003 17.4172 32.562 18.4297 30.2914 19.7578L22.0199 11.4842C21.8123 11.2766 21.5374 11.1501 21.2447 11.1274C20.952 11.1048 20.6609 11.1874 20.4238 11.3604C16.9528 13.8957 13.8955 16.9532 11.3605 20.4244C11.1872 20.6614 11.1044 20.9526 11.1271 21.2453C11.1498 21.5381 11.2765 21.813 11.4843 22.0205L19.7579 30.2913C18.4295 32.5618 17.4169 35.0028 16.7479 37.5469H5.04856C4.75483 37.5469 4.4708 37.652 4.24774 37.8431C4.02467 38.0341 3.87727 38.2987 3.83215 38.5889C3.17574 42.8378 3.17574 47.1622 3.83215 51.4111C3.87727 51.7013 4.02467 51.9659 4.24774 52.157C4.4708 52.3481 4.75483 52.4531 5.04856 52.4531H16.7486C17.4173 54.9972 18.4298 57.4381 19.7579 59.7087L11.4843 67.9802C11.2765 68.1877 11.1498 68.4627 11.1271 68.7554C11.1044 69.0481 11.1872 69.3393 11.3605 69.5763C13.8957 73.0475 16.9533 76.1051 20.4245 78.6403C20.6616 78.8135 20.9527 78.8962 21.2454 78.8735C21.5381 78.8508 21.8131 78.7242 22.0206 78.5166L30.2914 70.2422C32.5619 71.5706 35.0029 72.5833 37.547 73.2523V84.9523C37.5472 85.2458 37.6522 85.5296 37.8431 85.7525C38.0341 85.9754 38.2983 86.1227 38.5883 86.168C42.8372 86.8244 47.1616 86.8244 51.4105 86.168C51.7009 86.123 51.9656 85.9757 52.1568 85.7526C52.348 85.5295 52.4532 85.2454 52.4532 84.9516V73.2516C54.9973 72.5828 57.4383 71.5704 59.7088 70.2422L67.9804 78.5131C68.188 78.7206 68.4629 78.8471 68.7555 78.8698C69.0482 78.8925 69.3393 78.8098 69.5764 78.6368C73.0477 76.1016 76.1052 73.044 78.6404 69.5728C78.8137 69.3358 78.8965 69.0446 78.8738 68.7519C78.8511 68.4592 78.7244 68.1842 78.5167 67.9767L70.2423 59.7087C71.5707 57.4382 72.5834 54.9972 73.2524 52.4531H84.9524C85.2459 52.453 85.5297 52.3479 85.7526 52.157C85.9755 51.9661 86.1228 51.7018 86.1681 51.4118C86.8245 47.163 86.8245 42.8378 86.1681 38.5889ZM83.8829 49.9922H72.287C72.008 49.9922 71.7374 50.087 71.5193 50.261C71.3012 50.435 71.1487 50.6779 71.0868 50.9499C70.4214 53.8884 69.2595 56.6919 67.6513 59.2397C67.5025 59.4758 67.4384 59.7555 67.4695 60.0329C67.5005 60.3102 67.6249 60.5688 67.8222 60.7662L76.0206 68.9646C73.9793 71.608 71.6081 73.9792 68.9647 76.0205L60.7663 67.822C60.5688 67.6249 60.3103 67.5006 60.0329 67.4696C59.7556 67.4385 59.476 67.5026 59.2398 67.6512C56.692 69.2594 53.8885 70.4213 50.95 71.0866C50.678 71.1486 50.4351 71.3011 50.2611 71.5192C50.0871 71.7372 49.9923 72.0079 49.9923 72.2869V83.8828C46.6774 84.3017 43.3229 84.3017 40.0079 83.8828V72.2869C40.0079 72.0079 39.9131 71.7372 39.7391 71.5192C39.5651 71.3011 39.3223 71.1486 39.0503 71.0866C36.1117 70.4213 33.3082 69.2594 30.7604 67.6512C30.5244 67.5022 30.2446 67.4379 29.9672 67.469C29.6898 67.5 29.4312 67.6245 29.2339 67.822L21.0355 76.0205C18.3921 73.9792 16.0209 71.608 13.9796 68.9646L22.1781 60.7662C22.3754 60.5688 22.4997 60.3102 22.5308 60.0329C22.5618 59.7555 22.4977 59.4758 22.3489 59.2397C20.7409 56.6918 19.5794 53.8884 18.9142 50.9499C18.8522 50.6777 18.6996 50.4348 18.4814 50.2608C18.2632 50.0868 17.9923 49.9921 17.7132 49.9922H6.11731C5.69612 46.6774 5.69612 43.3226 6.11731 40.0078H17.7132C17.9923 40.0079 18.2632 39.9132 18.4814 39.7392C18.6996 39.5652 18.8522 39.3223 18.9142 39.0502C19.5796 36.1116 20.7414 33.3081 22.3496 30.7603C22.4984 30.5242 22.5625 30.2445 22.5315 29.9672C22.5004 29.6898 22.3761 29.4312 22.1788 29.2338L13.9804 21.0354C16.0214 18.392 18.3924 16.0208 21.0355 13.9795L29.2339 22.178C29.4313 22.3754 29.6899 22.4998 29.9673 22.5308C30.2446 22.5619 30.5243 22.4977 30.7604 22.3488C33.3083 20.7408 36.1118 19.5792 39.0503 18.9141C39.3224 18.8521 39.5654 18.6995 39.7393 18.4813C39.9133 18.2631 40.0081 17.9922 40.0079 17.7131V6.1172C43.3229 5.6983 46.6774 5.6983 49.9923 6.1172V17.7131C49.9922 17.9922 50.0869 18.2631 50.2609 18.4813C50.4349 18.6995 50.6779 18.8521 50.95 18.9141C53.8885 19.5795 56.692 20.7413 59.2398 22.3495C59.476 22.4982 59.7556 22.5622 60.0329 22.5312C60.3103 22.5001 60.5688 22.3758 60.7663 22.1787L68.9647 13.9802C71.6081 16.0215 73.9793 18.3927 76.0206 21.0361L67.8222 29.2345C67.6249 29.4319 67.5005 29.6905 67.4695 29.9679C67.4384 30.2452 67.5025 30.5249 67.6513 30.761C69.2595 33.3088 70.4214 36.1123 71.0868 39.0509C71.1487 39.3229 71.3012 39.5657 71.5193 39.7397C71.7374 39.9137 72.008 40.0085 72.287 40.0085H83.8829C84.3041 43.3233 84.3041 46.6774 83.8829 49.9922Z" fill="black"/>
</svg>
